<svg width="22" height="20" viewBox="0 0 22 20" fill="none" xmlns="http://www.w3.org/2000/svg">
<path d="M6.05012 1.4998C4.68012 2.8798 4.68012 5.0998 6.05012 6.4698L14.5401 14.9498C15.1201 15.5398 15.1201 16.4998 14.5401 17.0698C13.9501 17.6598 13.0001 17.6598 12.4101 17.0698L8.17012 12.8298L9.23012 11.7698L5.70012 8.2298L5.34012 8.5898L3.93012 7.1698C3.54012 6.7798 2.91012 6.7798 2.50012 7.1698L1.10012 8.5898C0.710117 8.9998 0.710117 9.6098 1.10012 9.9998L2.50012 11.4098L2.16012 11.7698L5.70012 15.2998L6.76012 14.2398L11.0001 18.4998C12.3701 19.8498 14.5801 19.8498 15.9501 18.4998C17.3201 17.1198 17.3201 14.8998 15.9501 13.5398L7.46012 5.0498C6.88012 4.4598 6.88012 3.4998 7.46012 2.9298C8.05012 2.3398 9.00012 2.3398 9.59012 2.9298L13.8301 7.1698L12.7701 8.2298L16.3001 11.7698L16.6601 11.4098L18.0701 12.8298C18.4601 13.2198 19.1001 13.2198 19.5001 12.8298L20.9001 11.4098C21.2901 10.9998 21.2901 10.3898 20.9001 9.9998L19.5001 8.5898L19.8401 8.2298L16.3001 4.6998L15.2401 5.7598L11.0001 1.4998C9.63012 0.149805 7.42012 0.149805 6.05012 1.4998ZM1.81012 9.2898L3.22012 7.8798L4.64012 9.2898L3.22012 10.7098L1.81012 9.2898ZM17.3601 10.7098L18.7801 9.2898L20.1901 10.7098L18.7801 12.1198L17.3601 10.7098Z" fill="#61A199"/>
</svg>
