<svg width="20" height="20" viewBox="0 0 20 20" fill="none" xmlns="http://www.w3.org/2000/svg">
<path d="M18.7902 11.95L16.4602 12.57L14.4602 11.44V8.56L16.4602 7.43L18.7902 8.05L19.3102 6.12L17.5402 5.65L18.0002 3.88L16.0702 3.36L15.4502 5.69L13.4502 6.82L11.0002 5.38V3.12L12.7102 1.41L11.2902 0L10.0002 1.29L8.7102 0L7.2902 1.41L9.0002 3.12V5.38L6.5002 6.82L4.5002 5.69L3.9202 3.36L2.0002 3.88L2.4702 5.65L0.700195 6.12L1.2202 8.05L3.5502 7.43L5.5502 8.56V11.45L3.5502 12.58L1.2202 11.96L0.700195 13.89L2.4702 14.36L2.0002 16.12L3.9302 16.64L4.5502 14.31L6.5502 13.18L9.0002 14.62V16.88L7.2902 18.59L8.7102 20L10.0002 18.71L11.2902 20L12.7002 18.59L11.0002 16.88V14.62L13.5002 13.17L15.5002 14.3L16.1202 16.63L18.0002 16.12L17.5302 14.35L19.3002 13.88L18.7902 11.95ZM7.5002 8.56L10.0002 7.11L12.5002 8.56V11.44L10.0002 12.89L7.5002 11.44V8.56Z" fill="#61A199"/>
</svg>
