<svg width="20" height="20" viewBox="0 0 20 20" fill="none" xmlns="http://www.w3.org/2000/svg">
<path d="M20 13C20 15.6 18.8 17.9 16.9 19.3L16.4 18.8L14.3 16.7L15.7 15.3L16.9 16.5C17.4 15.8 17.8 14.9 17.9 14H16V12H17.9C17.7 11.1 17.4 10.3 16.9 9.5L15.7 10.7L14.3 9.3L15.5 8.1C14.8 7.6 13.9 7.2 13 7.1V9H11V7.1C10.1 7.3 9.3 7.6 8.5 8.1L11.5 11.1C11.7 11.1 11.8 11 12 11C12.5304 11 13.0391 11.2107 13.4142 11.5858C13.7893 11.9609 14 12.4696 14 13C14 13.5304 13.7893 14.0391 13.4142 14.4142C13.0391 14.7893 12.5304 15 12 15C11.4696 15 10.9609 14.7893 10.5858 14.4142C10.2107 14.0391 10 13.5304 10 13C10 12.8 10 12.7 10.1 12.5L7.1 9.5C6.6 10.2 6.2 11.1 6.1 12H8V14H6.1C6.3 14.9 6.6 15.7 7.1 16.5L8.3 15.3L9.7 16.7L7.1 19.3C5.2 17.9 4 15.6 4 13C4 10.8783 4.84285 8.84344 6.34315 7.34315C7.84344 5.84285 9.87827 5 12 5C14.1217 5 16.1566 5.84285 17.6569 7.34315C19.1571 8.84344 20 10.8783 20 13ZM4.7 3.3L1.4 0L0 1.4L3.3 4.7L2 6H6V2L4.7 3.3Z" fill="#61A199"/>
</svg>
