<svg width="28" height="28" viewBox="0 0 28 28" fill="none" xmlns="http://www.w3.org/2000/svg">
<path d="M13.9998 0.719971C6.6665 0.719971 0.666504 6.70664 0.666504 14.08C0.666504 20.7466 5.5465 26.28 11.9198 27.28V17.9466H8.53317V14.08H11.9198V11.1333C11.9198 7.78664 13.9065 5.94664 16.9598 5.94664C18.4132 5.94664 19.9332 6.19997 19.9332 6.19997V9.4933H18.2532C16.5998 9.4933 16.0798 10.52 16.0798 11.5733V14.08H19.7865L19.1865 17.9466H16.0798V27.28C19.2218 26.7838 22.0828 25.1807 24.1464 22.7601C26.21 20.3394 27.3403 17.2608 27.3332 14.08C27.3332 6.70664 21.3332 0.719971 13.9998 0.719971Z" fill="white"/>
</svg>
