<svg width="108" height="108" viewBox="0 0 108 108" fill="none" xmlns="http://www.w3.org/2000/svg">
<circle cx="54" cy="54" r="54" fill="#61A199"/>
<path d="M67 37L37 67L41 71L71 41L67 37ZM44 38C42.4087 38 40.8826 38.6321 39.7574 39.7574C38.6321 40.8826 38 42.4087 38 44C38 45.5913 38.6321 47.1174 39.7574 48.2426C40.8826 49.3679 42.4087 50 44 50C45.5913 50 47.1174 49.3679 48.2426 48.2426C49.3679 47.1174 50 45.5913 50 44C50 42.4087 49.3679 40.8826 48.2426 39.7574C47.1174 38.6321 45.5913 38 44 38ZM64 58C62.4087 58 60.8826 58.6321 59.7574 59.7574C58.6321 60.8826 58 62.4087 58 64C58 65.5913 58.6321 67.1174 59.7574 68.2426C60.8826 69.3679 62.4087 70 64 70C65.5913 70 67.1174 69.3679 68.2426 68.2426C69.3679 67.1174 70 65.5913 70 64C70 62.4087 69.3679 60.8826 68.2426 59.7574C67.1174 58.6321 65.5913 58 64 58Z" fill="white"/>
</svg>
