<svg width="108" height="108" viewBox="0 0 108 108" fill="none" xmlns="http://www.w3.org/2000/svg">
<circle cx="54" cy="54" r="54" fill="#61A199"/>
<path d="M41 45C40.2044 45 39.4413 44.6839 38.8787 44.1213C38.3161 43.5587 38 42.7956 38 42C38 41.2044 38.3161 40.4413 38.8787 39.8787C39.4413 39.3161 40.2044 39 41 39C41.7956 39 42.5587 39.3161 43.1213 39.8787C43.6839 40.4413 44 41.2044 44 42C44 42.7956 43.6839 43.5587 43.1213 44.1213C42.5587 44.6839 41.7956 45 41 45ZM72.82 54.16L54.82 36.16C54.1 35.44 53.1 35 52 35H38C35.78 35 34 36.78 34 39V53C34 54.1 34.44 55.1 35.18 55.82L53.16 73.82C53.9 74.54 54.9 75 56 75C57.1 75 58.1 74.54 58.82 73.82L72.82 59.82C73.56 59.1 74 58.1 74 57C74 55.88 73.54 54.88 72.82 54.16Z" fill="white"/>
</svg>
