<svg width="18" height="19" viewBox="0 0 18 19" fill="none" xmlns="http://www.w3.org/2000/svg">
<path d="M14 2.5C14 3.9 12.9 5 11.5 5C10.1 5 9 3.9 9 2.5C9 1.1 10.1 0 11.5 0C12.9 0 14 1.1 14 2.5ZM12 6H11.2C9.1 6 7.1 4.8 6.1 2.9C6 2.8 5.9 2.7 5.9 2.6L4.1 3.4C4.6 4.8 6.2 6.6 8.5 7.5L6.7 12.5L2.8 11.4L0 16.9L2 17.4L3.8 13.8L8.3 15C9.3 15.2 10.3 14.7 10.7 13.8L13 7.4C13.2 6.7 12.7 6 12 6ZM15.9 5L12.5 14.4C11.9 16 10.4 17 8.8 17C8.5 17 8.1 17 7.8 16.9L4.9 16.1L4 17.9L6 18.4L7.4 18.8C7.9 18.9 8.4 19 8.9 19C11.4 19 13.6 17.5 14.5 15.1L18 5H15.9Z" fill="#61A199"/>
</svg>
