<svg width="28" height="28" viewBox="0 0 28 28" fill="none" xmlns="http://www.w3.org/2000/svg">
<path d="M18.0932 0.666748H9.9065C2.43984 0.666748 0.666504 2.44008 0.666504 9.90675V18.0934C0.666504 25.5601 2.43984 27.3334 9.9065 27.3334H18.0932C25.5598 27.3334 27.3332 25.5601 27.3332 18.0934V9.90675C27.3332 2.44008 25.5598 0.666748 18.0932 0.666748ZM22.1998 19.6934H20.2532C19.5198 19.6934 19.2932 19.0934 17.9998 17.7734C16.8265 16.6667 16.3198 16.5067 16.0398 16.5067C15.6532 16.5067 15.5332 16.6134 15.5332 17.1734V18.9201C15.5332 19.3867 15.3865 19.6801 14.1465 19.6801C12.0932 19.6801 9.81317 18.4267 8.21317 16.1201C5.79984 12.7334 5.1465 10.1734 5.1465 9.66675C5.1465 9.38675 5.23984 9.12008 5.79984 9.12008H7.75984C8.25317 9.12008 8.43984 9.33341 8.6265 9.86675C9.5865 12.6667 11.1865 15.0667 11.8398 15.0667C12.0932 15.0667 12.1998 14.9467 12.1998 14.3334V11.4667C12.1332 10.1601 11.4265 10.0401 11.4265 9.57342C11.4265 9.33342 11.6132 9.12008 11.9198 9.12008H14.9732C15.3865 9.12008 15.5332 9.33342 15.5332 9.84008V13.6934C15.5332 14.1067 15.7065 14.2534 15.8398 14.2534C16.0798 14.2534 16.2932 14.1067 16.7332 13.6534C18.1332 12.0934 19.1332 9.68008 19.1332 9.68008C19.2665 9.40008 19.4798 9.13342 19.9998 9.13342H21.9065C22.4932 9.13342 22.6265 9.44008 22.4932 9.85342C22.2532 10.9867 19.8798 14.3334 19.9065 14.3334C19.6932 14.6667 19.6132 14.8134 19.9065 15.2001C20.1065 15.4801 20.7865 16.0667 21.2398 16.5867C22.0665 17.5334 22.7065 18.3201 22.8798 18.8667C23.0265 19.4134 22.7598 19.6934 22.1998 19.6934Z" fill="white"/>
</svg>
