<svg width="24" height="23" viewBox="0 0 24 23" fill="none" xmlns="http://www.w3.org/2000/svg">
<path d="M11.5 0C11.1022 0 10.7206 0.158035 10.4393 0.43934C10.158 0.720644 10 1.10218 10 1.5V13.5C9.37 13.97 9 14.71 9 15.5C9 16.163 9.26339 16.7989 9.73223 17.2678C10.2011 17.7366 10.837 18 11.5 18C12.163 18 12.7989 17.7366 13.2678 17.2678C13.7366 16.7989 14 16.163 14 15.5C14 14.71 13.63 14 13 13.5V12H17V10H13V8H17V6H13V4H17V2H13V1.5C13 1.10218 12.842 0.720644 12.5607 0.43934C12.2794 0.158035 11.8978 0 11.5 0ZM0 14V16C0.67 16 0.79 16.21 1.29 16.71C1.79 17.21 2.67 18 4 18C5.33 18 6.21 17.21 6.71 16.71C6.82 16.59 6.91 16.5 7 16.41V14.16C6.21 14.42 5.65 14.93 5.29 15.29C4.79 15.79 4.67 16 4 16C3.33 16 3.21 15.79 2.71 15.29C2.21 14.79 1.33 14 0 14ZM16 14V16C16.67 16 16.79 16.21 17.29 16.71C17.79 17.21 18.67 18 20 18C21.33 18 22.21 17.21 22.71 16.71C23.21 16.21 23.33 16 24 16V14C22.67 14 21.79 14.79 21.29 15.29C20.79 15.79 20.67 16 20 16C19.33 16 19.21 15.79 18.71 15.29C18.21 14.79 17.33 14 16 14ZM8 19C6.67 19 5.79 19.79 5.29 20.29C4.79 20.79 4.67 21 4 21C3.33 21 3.21 20.79 2.71 20.29C2.35 19.93 1.79 19.42 1 19.16V21.41C1.09 21.5 1.18 21.59 1.29 21.71C1.79 22.21 2.67 23 4 23C5.33 23 6.21 22.21 6.71 21.71C7.21 21.21 7.33 21 8 21C8.67 21 8.79 21.21 9.29 21.71C9.73 22.14 10.44 22.8 11.5 22.96C11.66 23 11.83 23 12 23C13.33 23 14.21 22.21 14.71 21.71C15.21 21.21 15.33 21 16 21C16.67 21 16.79 21.21 17.29 21.71C17.79 22.21 18.67 23 20 23C21.33 23 22.21 22.21 22.71 21.71C22.82 21.59 22.91 21.5 23 21.41V19.16C22.21 19.42 21.65 19.93 21.29 20.29C20.79 20.79 20.67 21 20 21C19.33 21 19.21 20.79 18.71 20.29C18.21 19.79 17.33 19 16 19C14.67 19 13.79 19.79 13.29 20.29C12.79 20.79 12.67 21 12 21C11.78 21 11.63 20.97 11.5 20.92C11.22 20.82 11.05 20.63 10.71 20.29C10.21 19.79 9.33 19 8 19Z" fill="#61A199"/>
</svg>
