<svg width="108" height="108" viewBox="0 0 108 108" fill="none" xmlns="http://www.w3.org/2000/svg">
<circle cx="54" cy="54" r="54" fill="#61A199"/>
<path d="M44 60H48C48 62.16 50.74 64 54 64C57.26 64 60 62.16 60 60C60 57.8 57.92 57 53.52 55.94C49.28 54.88 44 53.56 44 48C44 44.42 46.94 41.38 51 40.36V36H57V40.36C61.06 41.38 64 44.42 64 48H60C60 45.84 57.26 44 54 44C50.74 44 48 45.84 48 48C48 50.2 50.08 51 54.48 52.06C58.72 53.12 64 54.44 64 60C64 63.58 61.06 66.62 57 67.64V72H51V67.64C46.94 66.62 44 63.58 44 60Z" fill="white"/>
</svg>
