<svg width="16" height="20" viewBox="0 0 16 20" fill="none" xmlns="http://www.w3.org/2000/svg">
<path d="M10 6C10 6.65661 9.87067 7.30679 9.6194 7.91342C9.36812 8.52004 8.99983 9.07124 8.53553 9.53553C8.07124 9.99983 7.52004 10.3681 6.91342 10.6194C6.30679 10.8707 5.65661 11 5 11C3.67392 11 2.40215 10.4732 1.46447 9.53553C0.526784 8.59785 0 7.32608 0 6C0 4.67392 0.526784 3.40215 1.46447 2.46447C2.40215 1.52678 3.67392 1 5 1C5.65661 1 6.30679 1.12933 6.91342 1.3806C7.52004 1.63188 8.07124 2.00017 8.53553 2.46447C8.99983 2.92876 9.36812 3.47995 9.6194 4.08658C9.87067 4.69321 10 5.34339 10 6ZM6.46 13.55L9 16.03L7 16.05L3.5 19.58L2 18.09L6.46 13.55ZM13 0C14.08 0 15 0.88 15 2C15 3.08 14.12 4 13 4C11.92 4 11 3.12 11 2C11 0.92 11.89 0 13 0ZM10.41 13H7.59L13.29 18.71L14.71 17.29L10.41 13ZM11.12 12.29L15.41 16.59L15.63 16.8C15.86 16.42 16 16 16 15.5V7.5C16 6.83696 15.7366 6.20107 15.2678 5.73223C14.7989 5.26339 14.163 5 13.5 5C12.837 5 12.2011 5.26339 11.7322 5.73223C11.2634 6.20107 11 6.83696 11 7.5V12.17L11.12 12.29Z" fill="#61A199"/>
</svg>
