<svg width="108" height="108" viewBox="0 0 108 108" fill="none" xmlns="http://www.w3.org/2000/svg">
<circle cx="54" cy="54" r="54" fill="#61A199"/>
<path d="M40 41H76V65H40V41ZM58 47C59.5913 47 61.1174 47.6321 62.2426 48.7574C63.3679 49.8826 64 51.4087 64 53C64 54.5913 63.3679 56.1174 62.2426 57.2426C61.1174 58.3679 59.5913 59 58 59C56.4087 59 54.8826 58.3679 53.7574 57.2426C52.6321 56.1174 52 54.5913 52 53C52 51.4087 52.6321 49.8826 53.7574 48.7574C54.8826 47.6321 56.4087 47 58 47ZM48 45C48 46.0609 47.5786 47.0783 46.8284 47.8284C46.0783 48.5786 45.0609 49 44 49V57C45.0609 57 46.0783 57.4214 46.8284 58.1716C47.5786 58.9217 48 59.9391 48 61H68C68 59.9391 68.4214 58.9217 69.1716 58.1716C69.9217 57.4214 70.9391 57 72 57V49C70.9391 49 69.9217 48.5786 69.1716 47.8284C68.4214 47.0783 68 46.0609 68 45H48ZM32 49H36V69H68V73H32V49Z" fill="white"/>
</svg>
